<svg width="39" height="39" viewBox="0 0 39 39" fill="none" xmlns="http://www.w3.org/2000/svg">
<g id="Group">
<path id="Vector" d="M27.6867 0L11.3132 0C9.735 0 8.44995 1.28505 8.44995 2.86325L8.44995 36.1361C8.44995 37.715 9.735 39 11.3132 39H27.6861C29.2649 39 30.55 37.715 30.55 36.1367L30.55 2.86325C30.55 1.28505 29.2649 0 27.6867 0ZM9.74995 5.2L29.25 5.2V29.9H9.74995L9.74995 5.2ZM11.3132 1.3L27.6861 1.3C28.5486 1.3 29.25 2.00135 29.25 2.86325V3.9L9.74995 3.9V2.86325C9.74995 2.00135 10.4513 1.3 11.3132 1.3ZM27.6867 37.7H11.3132C10.4513 37.7 9.74995 36.9986 9.74995 36.1367V31.2H29.25L29.25 36.1367C29.25 36.9986 28.5486 37.7 27.6867 37.7Z" fill="#9A9A9A"/>
<path id="Vector_2" d="M19.4999 31.8501C18.066 31.8501 16.8999 33.0162 16.8999 34.4501C16.8999 35.884 18.066 37.0501 19.4999 37.0501C20.9338 37.0501 22.0999 35.884 22.0999 34.4501C22.0999 33.0162 20.9338 31.8501 19.4999 31.8501ZM19.4999 35.7501C18.783 35.7501 18.1999 35.167 18.1999 34.4501C18.1999 33.7331 18.783 33.1501 19.4999 33.1501C20.2169 33.1501 20.7999 33.7331 20.7999 34.4501C20.7999 35.167 20.2169 35.7501 19.4999 35.7501Z" fill="#9A9A9A"/>
<path id="Vector_3" d="M16.9 3.2502H19.5C19.8594 3.2502 20.15 2.95965 20.15 2.6002C20.15 2.24075 19.8594 1.9502 19.5 1.9502L16.9 1.9502C16.5405 1.9502 16.25 2.24075 16.25 2.6002C16.25 2.95965 16.5405 3.2502 16.9 3.2502Z" fill="#9A9A9A"/>
<path id="Vector_4" d="M21.45 3.2502H22.1C22.4595 3.2502 22.75 2.95965 22.75 2.6002C22.75 2.24075 22.4595 1.9502 22.1 1.9502H21.45C21.0906 1.9502 20.8 2.24075 20.8 2.6002C20.8 2.95965 21.0906 3.2502 21.45 3.2502Z" fill="#9A9A9A"/>
<path id="Vector_5" d="M36.7977 2.96991C36.5436 2.71576 36.1328 2.71576 35.8786 2.96991C35.6245 3.22406 35.6245 3.63486 35.8786 3.88901C38.307 6.31741 38.307 10.2688 35.8786 12.6978C35.6245 12.952 35.6245 13.3628 35.8786 13.6169C36.0054 13.7437 36.1717 13.8074 36.3381 13.8074C36.5045 13.8074 36.671 13.7437 36.7977 13.6169C39.7331 10.6822 39.7331 5.90531 36.7977 2.96991Z" fill="#9A9A9A"/>
<path id="Vector_6" d="M34.0606 4.4494C33.8065 4.19525 33.3957 4.19525 33.1415 4.4494C32.8874 4.70355 32.8874 5.11435 33.1415 5.3685C33.9456 6.17255 34.3882 7.24375 34.3882 8.38385C34.3882 9.52395 33.9456 10.5945 33.1415 11.3986C32.8874 11.6527 32.8874 12.0635 33.1415 12.3177C33.2683 12.4444 33.4347 12.5081 33.6011 12.5081C33.7675 12.5081 33.9339 12.4444 34.0606 12.3177C35.1104 11.2686 35.6882 9.87105 35.6882 8.38385C35.6882 6.89665 35.111 5.4985 34.0606 4.4494Z" fill="#9A9A9A"/>
<path id="Vector_7" d="M3.12138 3.88901C3.37553 3.63486 3.37553 3.22406 3.12138 2.96991C2.86723 2.71576 2.45643 2.71576 2.20228 2.96991C-0.733118 5.90531 -0.733118 10.6815 2.20228 13.6169C2.32903 13.7437 2.49543 13.8074 2.66183 13.8074C2.82823 13.8074 2.99463 13.7437 3.12138 13.6169C3.37553 13.3628 3.37553 12.952 3.12138 12.6978C0.692332 10.2694 0.692332 6.31806 3.12138 3.88901Z" fill="#9A9A9A"/>
<path id="Vector_8" d="M5.85847 4.26971C5.60432 4.01556 5.19352 4.01556 4.93937 4.26971C3.88962 5.31881 3.31177 6.71631 3.31177 8.20351C3.31177 9.69071 3.88962 11.0882 4.93937 12.138C5.06612 12.2647 5.23252 12.3284 5.39892 12.3284C5.56532 12.3284 5.73172 12.2647 5.85847 12.138C6.11262 11.8838 6.11262 11.473 5.85847 11.2189C5.05442 10.4148 4.61177 9.34361 4.61177 8.20351C4.61177 7.06341 5.05377 5.99286 5.85847 5.18881C6.11197 4.93531 6.11197 4.52386 5.85847 4.26971Z" fill="#9A9A9A"/>
</g>
</svg>
